<?xml version="1.0" standalone="no"?>
<!DOCTYPE svg PUBLIC "-//W3C//DTD SVG 20010904//EN"
 "http://www.w3.org/TR/2001/REC-SVG-20010904/DTD/svg10.dtd">
<svg version="1.0" xmlns="http://www.w3.org/2000/svg"
 width="250.000000pt" height="160.000000pt" viewBox="0 0 250.000000 160.000000"
 preserveAspectRatio="xMidYMid meet">

<g transform="translate(0.000000,160.000000) scale(0.100000,-0.100000)"
fill="#000000" stroke="none">
<path d="M480 1327 l0 -243 35 4 35 4 0 199 0 199 695 0 695 0 2 -202 3 -202
35 0 35 0 3 242 2 242 -770 0 -770 0 0 -243z"/>
<path d="M680 1226 l0 -145 568 2 567 2 0 140 0 140 -567 3 -568 2 0 -144z"/>
<path d="M1070 1015 c0 -16 6 -25 15 -25 22 0 22 -268 0 -276 -8 -4 -15 -15
-15 -25 0 -17 8 -19 60 -19 53 0 60 2 60 20 0 11 -7 20 -15 20 -13 0 -15 25
-15 165 l0 165 -45 0 c-41 0 -45 -2 -45 -25z"/>
<path d="M2360 1020 c0 -11 7 -23 15 -26 9 -4 15 -19 15 -39 0 -31 -2 -33 -47
-39 -71 -9 -83 -26 -83 -112 0 -63 3 -76 26 -103 25 -30 28 -31 110 -31 76 0
84 2 84 19 0 10 -7 21 -15 25 -12 4 -15 32 -15 166 l0 160 -45 0 c-39 0 -45
-3 -45 -20z m30 -230 c0 -66 -1 -70 -23 -70 -36 0 -47 19 -47 82 l0 58 35 0
35 0 0 -70z"/>
<path d="M43 986 c-22 -19 -28 -32 -28 -66 0 -54 33 -84 110 -100 43 -9 59
-17 67 -36 18 -38 -12 -64 -74 -64 -36 0 -48 4 -48 15 0 9 -9 15 -25 15 -22 0
-25 -4 -25 -40 l0 -40 85 0 c79 0 87 2 117 29 28 24 33 36 32 71 -1 28 -9 49
-25 66 -21 22 -41 30 -121 48 -30 7 -45 40 -28 61 17 21 110 21 110 0 0 -9 9
-15 25 -15 23 0 25 4 25 40 l0 40 -84 0 c-75 0 -88 -3 -113 -24z"/>
<path d="M312 983 c2 -22 8 -28 28 -28 20 0 26 6 28 28 3 24 0 27 -28 27 -28
0 -31 -3 -28 -27z"/>
<path d="M1577 999 c-29 -17 -47 -72 -47 -141 0 -85 15 -132 51 -162 26 -22
40 -26 100 -26 67 0 69 1 69 25 0 24 -3 25 -54 25 -83 0 -100 19 -104 118 -5
104 4 122 64 122 30 0 46 -5 50 -15 4 -8 15 -15 25 -15 15 0 19 7 19 40 l0 40
-77 0 c-43 0 -86 -5 -96 -11z"/>
<path d="M287 913 c-13 -12 -7 -43 8 -43 12 0 15 -16 15 -80 0 -64 -3 -80 -15
-80 -8 0 -15 -9 -15 -20 0 -18 7 -20 60 -20 52 0 60 2 60 19 0 10 -7 21 -15
25 -12 4 -15 26 -15 106 l0 100 -38 0 c-21 0 -42 -3 -45 -7z"/>
<path d="M427 913 c-13 -12 -7 -43 8 -43 12 0 15 -16 15 -80 0 -64 -3 -80 -15
-80 -8 0 -15 -9 -15 -20 0 -18 7 -20 60 -20 52 0 60 2 60 19 0 10 -7 21 -15
25 -11 4 -15 21 -15 64 0 63 11 82 47 82 22 0 23 -3 23 -75 0 -43 -4 -75 -10
-75 -5 0 -10 -9 -10 -20 0 -18 7 -20 55 -20 47 0 55 3 55 19 0 10 -7 21 -15
25 -11 4 -15 21 -15 59 0 63 16 90 51 85 22 -3 24 -7 27 -71 2 -53 0 -68 -13
-73 -8 -3 -15 -15 -15 -25 0 -17 8 -19 60 -19 52 0 60 2 60 19 0 10 -7 21 -15
25 -11 4 -15 23 -15 78 -1 44 -6 80 -14 90 -21 29 -63 40 -106 28 -26 -7 -47
-7 -65 0 -18 7 -39 7 -61 1 -20 -6 -36 -6 -40 0 -6 10 -57 12 -67 2z"/>
<path d="M818 914 c-14 -13 -9 -44 7 -44 24 0 22 -258 -2 -275 -9 -7 -14 -19
-10 -29 5 -12 20 -16 62 -16 52 0 55 1 55 25 0 16 -6 25 -16 25 -11 0 -14 8
-12 33 2 26 8 33 28 35 14 1 35 5 48 8 60 13 86 155 38 211 -22 26 -31 28
-108 31 -45 2 -86 0 -90 -4z m160 -112 c4 -62 -8 -82 -49 -82 l-29 0 0 71 0
70 38 -3 37 -3 3 -53z"/>
<path d="M1260 913 c-42 -17 -50 -34 -50 -115 0 -73 2 -81 26 -103 23 -21 37
-25 90 -25 61 0 64 1 64 25 0 22 -4 24 -57 27 -44 2 -59 7 -61 19 -2 12 8 18
38 23 113 18 121 139 10 151 -25 2 -52 2 -60 -2z m76 -64 c8 -14 -4 -25 -38
-33 -25 -6 -28 -4 -28 19 0 21 5 25 29 25 17 0 33 -5 37 -11z"/>
<path d="M1777 913 c-13 -12 -7 -43 8 -43 12 0 15 -16 15 -80 0 -64 -3 -80
-15 -80 -8 0 -15 -9 -15 -20 0 -18 7 -20 60 -20 52 0 60 2 60 19 0 10 -7 21
-15 25 -19 7 -21 116 -3 134 17 17 48 15 48 -3 0 -9 9 -15 25 -15 23 0 25 4
25 40 0 49 -16 58 -74 42 -25 -7 -45 -7 -50 -1 -11 10 -59 12 -69 2z"/>
<path d="M1987 913 c-13 -12 -7 -43 8 -43 12 0 15 -15 15 -78 0 -112 10 -121
135 -121 87 1 95 2 95 20 0 10 -7 19 -15 19 -12 0 -15 16 -15 80 0 66 3 80 16
80 10 0 14 7 12 23 -3 19 -10 22 -60 25 -56 3 -58 2 -58 -21 0 -14 7 -27 15
-31 11 -4 15 -21 15 -59 0 -63 -16 -90 -51 -85 -22 3 -24 7 -27 71 -2 53 0 68
13 73 8 3 15 17 15 30 0 22 -4 24 -53 24 -30 0 -57 -3 -60 -7z"/>
<path d="M480 265 l0 -245 768 2 767 3 0 240 0 240 -35 0 -35 0 -3 -202 -2
-203 -695 0 -695 0 0 205 0 205 -35 0 -35 0 0 -245z"/>
<path d="M680 365 l0 -145 568 2 567 3 0 140 0 140 -567 3 -568 2 0 -145z"/>
</g>
</svg>
